<svg width="100" height="100" viewBox="0 0 100 100" fill="none" xmlns="http://www.w3.org/2000/svg">
<path d="M30.241 35.5684L64.4683 64.2885L50.4861 80.9519C42.5553 90.4035 28.464 91.6363 19.0124 83.7054V83.7054C9.56075 75.7746 8.32792 61.6833 16.2588 52.2317L30.241 35.5684Z" fill="#86EFAC" fill-opacity="0.4"/>
<path d="M23.167 59.6389C20.96 63.0313 18.3707 71.1169 25.6697 76.3205" stroke="#86EFAC" stroke-width="1.76371" stroke-linecap="round" stroke-dasharray="3.53 7.05 11.76 7.05"/>
<path d="M75.6961 16.1527C85.1474 24.0834 86.3805 38.1749 78.4504 47.6265L50.486 80.9531L50.1097 81.3909C42.1159 90.4417 28.3154 91.5137 19.0115 83.7068L18.5751 83.3305C9.52429 75.3366 8.45166 61.5369 16.2586 52.233L44.223 18.9063C52.1539 9.45543 66.2447 8.22243 75.6961 16.1527ZM32.1501 42.6285L20.8549 56.0897C15.0541 63.0027 15.9554 73.3096 22.8682 79.1105C29.7814 84.9113 40.0889 84.0096 45.8897 77.0964L57.1849 63.6353L32.1501 42.6285ZM71.8394 20.749C64.9264 14.9487 54.6201 15.8506 48.8193 22.763L37.1807 36.6333L62.2155 57.6401L73.8541 43.7697C79.6543 36.8566 78.7522 26.5497 71.8394 20.749Z" fill="#86EFAC"/>
</svg>
